<svg xmlns="http://www.w3.org/2000/svg" viewBox="0 0 512 512" role="img" aria-label="Awutu Bawjiase Community crown">
  <defs>
    <radialGradient id="bg" cx="34%" cy="22%" r="76%">
      <stop offset="0" stop-color="#263445"/>
      <stop offset="0.46" stop-color="#101722"/>
      <stop offset="1" stop-color="#070a10"/>
    </radialGradient>
    <linearGradient id="gold" x1="118" y1="76" x2="394" y2="420">
      <stop offset="0" stop-color="#fff1bc"/>
      <stop offset="0.3" stop-color="#d9ae54"/>
      <stop offset="0.62" stop-color="#9a6427"/>
      <stop offset="1" stop-color="#f0ce7a"/>
    </linearGradient>
    <linearGradient id="rim" x1="70" y1="48" x2="442" y2="464">
      <stop offset="0" stop-color="#f7d787"/>
      <stop offset="1" stop-color="#8f5b20"/>
    </linearGradient>
  </defs>
  <rect width="512" height="512" fill="url(#bg)"/>
  <rect x="36" y="36" width="440" height="440" fill="none" stroke="url(#rim)" stroke-width="11"/>
  <circle cx="256" cy="262" r="160" fill="#111a25" stroke="#c89543" stroke-width="6" opacity="0.92"/>
  <path fill="url(#gold)" d="M130 340h252l21-148-67 29-31-92-49 79-49-79-31 92-67-29 21 148Zm30-35-8-62 48 22 19-57 37 62 37-62 19 57 48-22-8 62H160Z"/>
  <rect x="150" y="352" width="212" height="35" fill="url(#gold)"/>
  <circle cx="256" cy="136" r="14" fill="#f8dc88"/>
  <circle cx="208" cy="219" r="11" fill="#f3c569"/>
  <circle cx="304" cy="219" r="11" fill="#f3c569"/>
  <path d="M166 402h180" stroke="#f5d481" stroke-width="8" stroke-linecap="square"/>
</svg>
